<svg width="56" height="50" viewBox="0 0 56 50" fill="none" xmlns="http://www.w3.org/2000/svg">
<path d="M55.4864 33.852H0V0H55.4864V33.8512V33.852Z" fill="#8DB6F4"/>
<path d="M17.6672 33.852H2.93201V49.1952L17.6672 33.852Z" fill="#8DB6F4"/>
<path d="M18.6063 22.7592C17.6412 22.7592 16.7534 22.5222 15.9427 22.0481C15.1417 21.574 14.5047 20.9183 14.0318 20.0811C13.559 19.2438 13.3225 18.3007 13.3225 17.2516C13.3225 16.2026 13.559 15.2594 14.0318 14.4222C14.5047 13.585 15.1417 12.9343 15.9427 12.4703C16.7534 11.9962 17.6412 11.7592 18.6063 11.7592C19.5714 11.7592 20.4544 11.9962 21.2554 12.4703C22.0564 12.9343 22.6886 13.585 23.1518 14.4222C23.6247 15.2594 23.8611 16.2026 23.8611 17.2516C23.8611 18.3007 23.6247 19.2438 23.1518 20.0811C22.6886 20.9183 22.0516 21.574 21.241 22.0481C20.4399 22.5222 19.5617 22.7592 18.6063 22.7592ZM18.6063 19.6272C19.2432 19.6272 19.7354 19.4153 20.0829 18.9917C20.4303 18.5579 20.604 17.9779 20.604 17.2516C20.604 16.5153 20.4303 15.9353 20.0829 15.5116C19.7354 15.0779 19.2432 14.861 18.6063 14.861C17.9597 14.861 17.4627 15.0779 17.1153 15.5116C16.7678 15.9353 16.5941 16.5153 16.5941 17.2516C16.5941 17.9779 16.7678 18.5579 17.1153 18.9917C17.4627 19.4153 17.9597 19.6272 18.6063 19.6272Z" fill="white"/>
<path d="M33.0692 11.9408V14.6038H30.3477V22.6533H27.134V14.6038H24.4414V11.9408H33.0692Z" fill="white"/>
<path d="M42.3225 15.6175C42.3225 16.2934 42.1729 16.9087 41.8738 17.4635C41.5746 18.0082 41.1306 18.4419 40.5419 18.7647C39.9629 19.0875 39.2584 19.2489 38.4284 19.2489H37.1545V22.6533H33.9408V11.9408H38.4284C39.683 11.9408 40.6433 12.2736 41.3092 12.9394C41.9847 13.6051 42.3225 14.4979 42.3225 15.6175ZM38.0665 16.601C38.7324 16.601 39.0654 16.2732 39.0654 15.6175C39.0654 14.9619 38.7324 14.634 38.0665 14.634H37.1545V16.601H38.0665Z" fill="white"/>
</svg>
